<?xml version="1.0" encoding="UTF-8" standalone="no"?>
<!-- Created with Inkscape (http://www.inkscape.org/) -->

<svg
   xmlns:dc="http://purl.org/dc/elements/1.1/"
   xmlns:cc="http://creativecommons.org/ns#"
   xmlns:rdf="http://www.w3.org/1999/02/22-rdf-syntax-ns#"
   xmlns:svg="http://www.w3.org/2000/svg"
   xmlns="http://www.w3.org/2000/svg"
   xmlns:sodipodi="http://sodipodi.sourceforge.net/DTD/sodipodi-0.dtd"
   xmlns:inkscape="http://www.inkscape.org/namespaces/inkscape"
   width="300mm"
   height="80mm"
   viewBox="0 0 300 80"
   version="1.1"
   id="svg3686"
   inkscape:version="0.92.1 r15371"
   sodipodi:docname="productplaceholder.svg">
  <defs
     id="defs3680" />
  <sodipodi:namedview
     id="base"
     pagecolor="#ffffff"
     bordercolor="#666666"
     borderopacity="1.0"
     inkscape:pageopacity="0.0"
     inkscape:pageshadow="2"
     inkscape:zoom="0.98994949"
     inkscape:cx="542.79969"
     inkscape:cy="325.03546"
     inkscape:document-units="mm"
     inkscape:current-layer="layer1"
     showgrid="false"
     inkscape:window-width="1714"
     inkscape:window-height="883"
     inkscape:window-x="847"
     inkscape:window-y="350"
     inkscape:window-maximized="0" />
  <metadata
     id="metadata3683">
    <rdf:RDF>
      <cc:Work
         rdf:about="">
        <dc:format>image/svg+xml</dc:format>
        <dc:type
           rdf:resource="http://purl.org/dc/dcmitype/StillImage" />
        <dc:title></dc:title>
      </cc:Work>
    </rdf:RDF>
  </metadata>
  <g
     inkscape:label="Ebene 1"
     inkscape:groupmode="layer"
     id="layer1"
     transform="translate(0,-217)">
    <g
       id="g3770"
       transform="matrix(0.13229167,0,0,0.13229166,8.61786,223.21905)">
      <polygon
         id="polygon3688"
         points="411.826,33.391 345.043,33.391 345.043,0 166.957,0 166.957,33.391 100.174,33.391 100.174,66.783 66.783,66.783 66.783,100.174 33.391,100.174 33.391,166.957 0,166.957 0,278.261 33.391,278.261 33.391,311.652 155.825,311.652 155.825,478.609 189.217,478.609 189.217,512 322.783,512 322.783,478.609 356.173,478.609 356.173,311.652 478.609,311.652 478.609,278.261 512,278.261 512,166.957 478.609,166.957 478.609,100.174 445.217,100.174 445.217,66.783 411.826,66.783 "
         style="fill:#d80027" />
      <g
         id="g3694">
        <polygon
           id="polygon3690"
           points="100.174,155.826 100.174,211.478 133.565,211.478 133.565,244.87 189.217,244.87 189.217,211.478 222.609,211.478 222.609,155.826 189.217,155.826 189.217,122.435 133.565,122.435 133.565,155.826 "
           style="fill:#ffffff" />
        <polygon
           id="polygon3692"
           points="222.609,33.391 222.609,122.435 256,122.435 256,155.826 345.043,155.826 345.043,122.435 378.435,122.435 378.435,33.391 345.043,33.391 345.043,0 256,0 256,33.391 "
           style="fill:#ffffff" />
      </g>
      <polygon
         id="polygon3696"
         points="322.783,512 322.783,478.609 356.173,478.609 356.173,278.261 155.825,278.261 155.825,478.609 189.217,478.609 189.217,512 "
         style="fill:#fff5cc" />
      <rect
         id="rect3698"
         height="33.390999"
         width="33.390999"
         y="66.782997"
         x="66.782997" />
      <polygon
         id="polygon3700"
         points="345.043,33.391 345.043,0 166.957,0 166.957,33.391 100.174,33.391 100.174,66.783 166.957,66.783 166.957,33.391 345.043,33.391 345.043,66.783 411.826,66.783 411.826,33.391 " />
      <polygon
         id="polygon3702"
         points="155.825,278.261 155.825,278.261 33.391,278.261 33.391,166.957 66.783,166.957 66.783,100.174 33.391,100.174 33.391,166.957 0,166.957 0,278.261 33.391,278.261 33.391,311.652 155.825,311.652 155.825,478.609 189.217,478.609 189.217,311.652 322.783,311.652 322.783,478.609 189.217,478.609 189.217,512 322.783,512 322.783,478.609 356.173,478.609 356.173,311.652 478.609,311.652 478.609,278.261 356.173,278.261 322.781,278.261 189.216,278.261 " />
      <polygon
         id="polygon3704"
         points="478.609,278.261 512,278.261 512,166.957 478.609,166.957 478.609,100.174 445.217,100.174 445.217,166.957 478.609,166.957 " />
      <rect
         id="rect3706"
         height="33.390999"
         width="33.390999"
         y="66.782997"
         x="411.82599" />
      <g
         id="g3708" />
      <g
         id="g3710" />
      <g
         id="g3712" />
      <g
         id="g3714" />
      <g
         id="g3716" />
      <g
         id="g3718" />
      <g
         id="g3720" />
      <g
         id="g3722" />
      <g
         id="g3724" />
      <g
         id="g3726" />
      <g
         id="g3728" />
      <g
         id="g3730" />
      <g
         id="g3732" />
      <g
         id="g3734" />
      <g
         id="g3736" />
    </g>
    <flowRoot
       xml:space="preserve"
       id="flowRoot3780"
       style="fill:black;fill-opacity:1;stroke:none;font-family:sans-serif;font-style:normal;font-weight:normal;font-size:85.33333333px;line-height:1.25;letter-spacing:0px;word-spacing:0px"><flowRegion
         id="flowRegion3782"><rect
           id="rect3784"
           width="0"
           height="115.15739"
           x="294.96454"
           y="82.148956" /></flowRegion><flowPara
         id="flowPara3786"></flowPara></flowRoot>    <text
       xml:space="preserve"
       style="font-style:normal;font-weight:normal;font-size:52.28313828px;line-height:1.25;font-family:sans-serif;letter-spacing:0px;word-spacing:0px;fill:#ffffff;fill-opacity:1;stroke:none;stroke-width:0.61269289;"
       x="94.549507"
       y="262.47623"
       id="text3848"
       transform="scale(0.92583325,1.0801081)"><tspan
         sodipodi:role="line"
         id="tspan3846"
         x="94.549507"
         y="262.47623"
         style="font-style:normal;font-variant:normal;font-weight:bold;font-stretch:normal;font-family:'Segoe UI';-inkscape-font-specification:'Segoe UI Bold';fill:#ffffff;stroke-width:0.61269289;">Pro|dụkt</tspan></text>
  </g>
</svg>
